<svg xmlns="http://www.w3.org/2000/svg" viewBox="0 0 32 32"><style>.a{fill:#2b1d14}.s{stroke:#2b1d14}.bg{fill:#faeedd}@media (prefers-color-scheme:dark){.a{fill:#f6eadb}.s{stroke:#f6eadb}.bg{fill:#1c1511}}</style><defs><clipPath id="l"><rect width="16" height="32"/></clipPath><clipPath id="r"><rect x="16" width="16" height="32"/></clipPath></defs><circle class="bg" cx="16" cy="16" r="15.5"/><circle class="s" cx="16" cy="16" r="13.2" fill="none" stroke-width="4" clip-path="url(#l)"/><circle cx="16" cy="16" r="13.2" fill="none" stroke="#c8471f" stroke-width="4" clip-path="url(#r)"/><g transform="translate(16 16) scale(0.74) translate(-33.3 -32)"><path class="a" d="M24.4 43.2V27.4c0-5.1 2.9-7.9 7.6-7.9v3.8c-2.3 0-3.7 1.4-3.7 4.1v15.8z"/><circle class="a" cx="32.3" cy="21.9" r="2.3"/><path d="M36.6 23.2l4.2-1.9v15.2c0 1.9.9 2.9 2.8 2.9h1.2v3.8h-1.7c-4.1 0-6.5-2.3-6.5-6.4z" fill="#c8471f"/><rect class="a" x="20.8" y="27.4" width="24.2" height="3.8" rx="0.6"/></g></svg>
